<svg xmlns="http://www.w3.org/2000/svg" width="32" height="32"><path fill="#4d5ae5" d="M32 16v.021a15.9 15.9 0 0 1-4.686 11.293A15.9 15.9 0 0 1 16.021 32h-.022H16h-.021a15.9 15.9 0 0 1-11.293-4.686A15.9 15.9 0 0 1 0 16.021V16v.001-.021A15.9 15.9 0 0 1 4.686 4.687 15.9 15.9 0 0 1 15.979.001H16h-.001.021a15.9 15.9 0 0 1 11.293 4.686 15.9 15.9 0 0 1 4.686 11.293v.022-.001z"/><path fill="#f4f4fd" d="M18.132 11.726H19.3V9.691a14.508 14.508 0 0 0-1.65-.091h-.056.003c-1.685 0-2.838 1.06-2.838 3.008V14.4H12.9v2.275h1.859V22.4h2.279v-5.724h1.784l.283-2.276h-2.068v-1.568c.001-.658.178-1.107 1.094-1.107z"/></svg>